# Blender v2.93.6 OBJ File: 'asteroid.blend'
# www.blender.org
mtllib asteroid.mtl
o Cube
v -0.944192 1.000371 -0.459408
v -0.944192 0.791906 0.919309
v -0.559115 -0.999629 -1.012568
v -0.944192 -0.999629 0.337944
v 0.681271 0.621395 -0.634465
v 1.055808 0.991826 0.598575
v 1.055808 -0.792632 -0.874693
v 0.598802 -0.613607 1.125307
vt 0.875000 0.500000
vt 0.625000 0.750000
vt 0.625000 0.500000
vt 0.375000 1.000000
vt 0.375000 0.750000
vt 0.625000 0.000000
vt 0.375000 0.250000
vt 0.375000 0.000000
vt 0.375000 0.500000
vt 0.125000 0.750000
vt 0.125000 0.500000
vt 0.625000 0.250000
vt 0.875000 0.750000
vt 0.625000 1.000000
vn -0.0437 0.2585 -0.9650
vn 0.2130 -0.9752 0.0607
vn 0.9524 -0.1940 0.2350
vn 0.1251 0.2770 0.9527
vn -1.0000 -0.0000 0.0000
vn -0.1355 0.9595 -0.2471
vn 0.0604 0.1827 -0.9813
vn 0.1166 -0.9865 0.1150
vn 0.8858 0.2954 -0.3578
vn -0.3779 -0.2858 0.8806
vn -0.9560 -0.1087 -0.2726
vn 0.2395 0.9600 0.1452
usemtl Material
s off
f 5/1/1 3/2/1 1/3/1
f 3/2/2 8/4/2 4/5/2
f 7/6/3 6/7/3 8/8/3
f 2/9/4 8/10/4 6/11/4
f 1/3/5 4/5/5 2/9/5
f 5/12/6 2/9/6 6/7/6
f 5/1/7 7/13/7 3/2/7
f 3/2/8 7/14/8 8/4/8
f 7/6/9 5/12/9 6/7/9
f 2/9/10 4/5/10 8/10/10
f 1/3/11 3/2/11 4/5/11
f 5/12/12 1/3/12 2/9/12
