# Blender v2.93.6 OBJ File: 'untitled.blend'
# www.blender.org
mtllib spaceship.mtl
o Cube.001_Cube
v -0.882378 -0.341225 -1.608676
v -0.239757 0.427272 -0.031653
v -0.455801 -0.179275 1.453735
v -0.409698 0.023464 1.515022
v -0.527319 -0.250258 1.122444
v -0.360456 0.023464 1.139329
v -0.211331 -0.134028 1.531908
v -0.220000 0.056881 1.617434
v -0.192709 0.022141 1.064504
v -0.875949 0.237413 0.429920
v -0.449508 -0.048495 -3.177701
v -0.272007 0.092504 -3.178603
v -1.081406 0.188671 -0.031653
v -1.637323 -0.238269 -0.081493
v -0.661144 -0.009564 -0.808753
v -0.634208 -0.432200 -0.085136
v -0.786107 -0.326288 -0.687502
v -1.010340 -0.085335 -1.287777
v -3.687649 -0.145485 -0.463719
v -1.978737 -0.072457 -0.389594
v -0.884449 -0.246662 0.805190
v -0.237197 0.327403 -0.820164
v -0.871275 0.053625 -0.420203
v -2.723141 0.004110 -0.200967
v -0.946235 -0.321040 0.436847
v -3.044833 -0.021493 -0.277003
v -3.029730 0.052486 -0.085609
v -2.801857 -0.010326 0.327196
v -3.074437 -0.092307 -0.189722
v -0.135202 0.119014 1.399591
v -0.468635 0.195657 1.034886
v -0.391167 0.269611 0.321842
v -0.500733 0.218152 0.908399
v -1.266257 0.608802 1.381701
v -0.259855 -0.228336 1.194453
v -0.531527 -0.250215 1.116658
v -0.527758 -0.251004 1.117489
v 0.882378 -0.341225 -1.608676
v 0.000000 0.430792 -1.608676
v 0.239757 0.427272 -0.031653
v 0.455801 -0.179275 1.453735
v 0.409698 0.023464 1.515022
v 0.527319 -0.250258 1.122444
v 0.360456 0.023464 1.139329
v 0.211331 -0.134028 1.531908
v 0.220000 0.056881 1.617434
v 0.000000 -0.159867 0.626834
v 0.192710 0.022141 1.064504
v 0.875949 0.237413 0.429920
v 0.000000 0.488039 -0.318859
v 0.449508 -0.048495 -3.177701
v 0.000000 -0.507040 -1.913926
v 0.000000 -0.131262 -4.033931
v 0.000000 0.267336 -2.210787
v 0.000000 0.088682 -3.456580
v 0.000000 0.270462 -2.432389
v 0.272007 0.092504 -3.178603
v 1.081406 0.188671 -0.031653
v 1.637324 -0.238269 -0.081493
v 0.661145 -0.009564 -0.808753
v 0.634209 -0.432200 -0.085136
v 0.786108 -0.326288 -0.687502
v 1.010341 -0.085335 -1.287777
v 3.687649 -0.145485 -0.463719
v 1.978737 -0.072457 -0.389594
v 0.884449 -0.246662 0.805190
v 0.237197 0.327403 -0.820164
v 0.871275 0.053625 -0.420203
v 2.723141 0.004110 -0.200967
v 0.946235 -0.321040 0.436847
v 3.044833 -0.021493 -0.277003
v 3.029730 0.052486 -0.085609
v 2.801857 -0.010326 0.327196
v 3.074437 -0.092307 -0.189722
v 0.135203 0.119014 1.399591
v 0.468636 0.195657 1.034886
v 0.391167 0.269611 0.321842
v 0.500733 0.218152 0.908399
v 1.266258 0.608802 1.381701
v 0.000000 0.452889 1.603819
v 0.259855 -0.228336 1.194453
v 0.531527 -0.250215 1.116658
v 0.527758 -0.251004 1.117489
v 0.000000 -0.052466 0.926354
v 0.000000 0.379618 0.632890
vt 0.203284 0.320876
vt 0.121524 0.303810
vt 0.176844 0.245984
vt 0.495818 0.761415
vt 0.519138 0.790323
vt 0.489788 0.795855
vt 0.140212 0.380590
vt 0.086924 0.398355
vt 0.115513 0.345055
vt 0.553264 0.796829
vt 0.572451 0.751586
vt 0.572451 0.844487
vt 0.770984 0.489580
vt 0.751485 0.473332
vt 0.770984 0.463412
vt 0.778851 0.759492
vt 0.820748 0.792819
vt 0.794596 0.790617
vt 0.526870 0.740942
vt 0.533659 0.796469
vt 0.120776 0.669409
vt 0.070710 0.590115
vt 0.102684 0.611309
vt 0.218199 0.281689
vt 0.298987 0.243292
vt 0.232927 0.309180
vt 0.208087 0.168286
vt 0.359533 0.087656
vt 0.243548 0.761986
vt 0.208496 0.844121
vt 0.318391 0.907986
vt 0.350093 1.000000
vt 0.254517 0.127364
vt 0.341973 0.073011
vt 0.268654 0.110032
vt 0.343143 0.036969
vt 0.184806 0.600672
vt 0.226248 0.600518
vt 0.662188 0.657405
vt 0.666599 0.759880
vt 0.657022 0.693061
vt 0.185018 0.357483
vt 0.139124 0.427587
vt 0.171423 0.702997
vt 0.223835 0.732832
vt 0.839253 0.858920
vt 0.829669 0.857043
vt 0.825475 0.824824
vt 0.350093 0.484717
vt 0.287536 0.508861
vt 0.230449 0.491956
vt 0.276098 0.387133
vt 0.274334 0.265899
vt 0.278216 0.484717
vt 0.306687 0.438937
vt 0.316073 0.462596
vt 0.164327 0.723964
vt 0.332798 0.451188
vt 0.390611 0.475581
vt 0.290094 0.517972
vt 0.077823 0.407272
vt 0.037143 0.420495
vt 0.825475 0.504770
vt 0.825475 0.637119
vt 0.782527 0.563029
vt 0.666599 0.698317
vt 0.699870 0.626465
vt 0.675910 0.707045
vt 0.699870 0.762108
vt 0.682481 0.790527
vt 0.696334 0.762108
vt 0.696334 0.828432
vt 0.640543 0.685288
vt 0.024292 0.592825
vt 0.024591 0.592628
vt 0.635358 0.830083
vt 0.613801 0.818968
vt 0.635358 0.759880
vt 0.000000 0.606426
vt 0.122285 0.266461
vt 0.065996 0.344313
vt 0.618183 0.681390
vt 0.666599 0.626465
vt 0.023895 0.592509
vt 0.020851 0.666099
vt 0.595755 0.702952
vt 0.000000 0.417132
vt 0.769284 0.144564
vt 0.833202 0.187158
vt 0.775148 0.224196
vt 0.489515 0.754196
vt 0.456386 0.774717
vt 0.473484 0.740942
vt 0.820400 0.101237
vt 0.804105 0.051196
vt 0.804799 0.038306
vt 0.456386 0.833984
vt 0.439392 0.789683
vt 0.456386 0.740942
vt 0.791492 0.467973
vt 0.772178 0.482255
vt 0.770984 0.463412
vt 0.350093 0.706251
vt 0.387380 0.671093
vt 0.387380 0.764471
vt 0.446526 0.845247
vt 0.427310 0.799641
vt 0.506834 0.314249
vt 0.492195 0.374939
vt 0.462121 0.398223
vt 0.826412 0.225414
vt 0.860708 0.214102
vt 0.863939 0.307501
vt 0.751213 0.302499
vt 0.810830 0.463412
vt 0.635036 0.226435
vt 0.593604 0.140386
vt 0.721127 0.093004
vt 0.750574 0.000000
vt 0.350093 0.566181
vt 0.389108 0.544788
vt 0.371281 0.569604
vt 0.553265 0.845282
vt 0.533659 0.770765
vt 0.553265 0.740942
vt 0.385469 0.671093
vt 0.389108 0.649017
vt 0.702872 0.752822
vt 0.699870 0.648637
vt 0.702872 0.626465
vt 0.578758 0.388081
vt 0.626630 0.393741
vt 0.704001 0.732879
vt 0.734528 0.747451
vt 0.778851 0.785089
vt 0.833780 0.148830
vt 0.863939 0.063914
vt 0.562038 0.284819
vt 0.623610 0.263576
vt 0.825475 0.601063
vt 0.838451 0.566654
vt 0.841870 0.712767
vt 0.750574 0.504770
vt 0.633116 0.502260
vt 0.688550 0.482911
vt 0.539472 0.629019
vt 0.595755 0.735023
vt 0.541368 0.740942
vt 0.483712 0.670743
vt 0.496986 0.537667
vt 0.544021 0.530992
vt 0.545007 0.561179
vt 0.511887 0.707854
vt 0.775974 0.683455
vt 0.740236 0.654495
vt 0.775974 0.647695
vt 0.561275 0.540603
vt 0.595755 0.504770
vt 0.572451 0.779398
vt 0.591618 0.740942
vt 0.591618 0.841593
vt 0.828914 0.568754
vt 0.841870 0.504770
vt 0.795262 0.000000
vt 0.841870 0.715838
vt 0.858063 0.677596
vt 0.858063 0.824476
vt 0.595755 0.536863
vt 0.667494 0.537407
vt 0.704001 0.626465
vt 0.740236 0.562143
vt 0.751306 0.555059
vt 0.782527 0.647695
vt 0.782527 0.504770
vt 0.485498 0.789550
vt 0.489515 0.826568
vt 0.738650 0.729921
vt 0.414632 0.395450
vt 0.414252 0.395785
vt 0.390611 0.382887
vt 0.750574 0.172329
vt 0.704001 0.679072
vt 0.740236 0.504770
vt 0.732373 0.601166
vt 0.859699 0.677596
vt 0.841870 0.532228
vt 0.859699 0.504770
vt 0.666599 0.799063
vt 0.682481 0.762108
vt 0.682481 0.831452
vt 0.414964 0.395670
vt 0.414135 0.326648
vt 0.748814 0.707022
vt 0.778851 0.698917
vt 0.740236 0.698917
vt 0.510645 0.753060
vt 0.556860 0.740942
vt 0.750574 0.494441
vt 0.820748 0.698917
vt 0.390611 0.000000
vt 0.262120 0.535458
vt 0.839253 0.712767
vt 0.613801 0.759880
vt 0.613801 0.856863
vt 0.595755 0.822817
vt 0.489515 0.796469
vt 0.485532 0.788916
vt 0.390611 0.790073
vt 0.427310 0.776203
vt 0.427310 0.835446
vt 0.791492 0.492549
vt 0.363075 0.674321
vt 0.431028 0.837529
vt 0.379039 0.484717
vt 0.858063 0.738121
vt 0.870986 0.677596
vt 0.870986 0.837952
vt 0.665864 0.460067
vt 0.390611 0.681218
vt 0.704001 0.504770
vt 0.426914 0.740942
vt 0.656432 0.759880
vt 0.656432 0.821906
vt 0.635359 0.766429
vn -0.4533 0.8841 -0.1134
vn -0.8535 0.5158 0.0738
vn -0.0487 0.9957 0.0783
vn 0.8662 0.4625 0.1891
vn -0.2587 -0.2251 0.9394
vn 0.1222 -0.9756 0.1827
vn -0.0205 0.9978 -0.0637
vn -0.0141 -0.9797 0.2002
vn -0.9144 0.3949 0.0892
vn -0.6579 0.7520 -0.0412
vn -0.1936 -0.9807 -0.0270
vn -0.2606 -0.9336 -0.2461
vn -0.4570 -0.8758 -0.1552
vn -0.6215 0.7827 0.0333
vn -0.1626 0.9715 -0.1724
vn -0.5695 0.8219 0.0116
vn -0.1820 -0.9358 -0.3019
vn 0.5260 -0.8376 -0.1477
vn -0.8838 0.2962 0.3621
vn -0.2649 -0.9250 -0.2723
vn 0.1992 -0.7930 -0.5758
vn 0.0205 -0.9891 0.1460
vn -0.0790 0.9919 -0.0993
vn -0.2333 -0.9660 -0.1110
vn -0.0061 0.8865 0.4626
vn -0.0472 0.8702 -0.4905
vn -0.1163 0.9684 -0.2204
vn 0.7457 -0.4736 -0.4687
vn -0.1886 -0.9774 0.0954
vn -0.2880 -0.9282 0.2357
vn -0.0769 0.9320 -0.3542
vn -0.4582 0.8056 0.3755
vn 0.3071 -0.7873 -0.5346
vn -0.1147 -0.9700 0.2143
vn -0.6214 0.7789 -0.0848
vn -0.6530 0.7463 -0.1288
vn -0.5707 0.7037 -0.4231
vn -0.7894 -0.6069 0.0923
vn -0.7387 0.4210 0.5264
vn -0.4076 0.8861 0.2206
vn 0.5035 0.8520 0.1431
vn -0.4722 -0.8807 -0.0368
vn -0.5300 -0.8304 -0.1719
vn -0.6227 0.3305 0.7093
vn 0.1079 -0.9598 0.2590
vn -0.2553 -0.9258 0.2787
vn -0.1011 0.9922 0.0734
vn 0.1811 -0.9781 0.1028
vn -0.3742 0.9199 -0.1177
vn -0.5036 0.8631 -0.0383
vn -0.7864 0.6137 0.0699
vn 0.0041 0.9776 0.2103
vn 0.7326 -0.5456 0.4070
vn -0.2369 -0.9574 0.1652
vn 0.0419 -0.9885 0.1452
vn 0.4865 -0.8657 0.1183
vn -0.1510 -0.9424 0.2984
vn -0.1215 -0.9343 0.3350
vn -0.9201 0.3906 -0.0295
vn 0.4533 0.8841 -0.1134
vn 0.9585 0.2559 -0.1256
vn 0.2444 0.9421 0.2296
vn -0.8662 0.4625 0.1891
vn 0.3826 -0.3922 0.8366
vn -0.2453 -0.9657 0.0848
vn 0.0205 0.9978 -0.0637
vn 0.0141 -0.9797 0.2002
vn 0.9144 0.3949 0.0892
vn 0.6579 0.7520 -0.0412
vn 0.1936 -0.9807 -0.0270
vn 0.2606 -0.9336 -0.2461
vn 0.4570 -0.8758 -0.1552
vn 0.5300 0.6638 -0.5277
vn 0.1626 0.9715 -0.1724
vn 0.5695 0.8219 0.0116
vn 1.0000 -0.0000 0.0000
vn 0.1820 -0.9358 -0.3019
vn -0.5260 -0.8376 -0.1477
vn 0.8838 0.2962 0.3621
vn 0.2649 -0.9250 -0.2723
vn -0.0445 -0.2742 -0.9607
vn -0.0205 -0.9891 0.1460
vn 0.0790 0.9919 -0.0993
vn 0.2333 -0.9660 -0.1110
vn 0.0737 0.9791 0.1897
vn 0.0472 0.8702 -0.4905
vn 0.1163 0.9684 -0.2204
vn -0.7457 -0.4736 -0.4687
vn 0.1886 -0.9774 0.0954
vn 0.2880 -0.9282 0.2357
vn 0.0769 0.9320 -0.3542
vn 0.4582 0.8056 0.3755
vn -0.3071 -0.7873 -0.5346
vn 0.1147 -0.9700 0.2143
vn 0.6214 0.7789 -0.0848
vn 0.6530 0.7463 -0.1288
vn 0.5707 0.7037 -0.4231
vn 0.7894 -0.6069 0.0923
vn 0.6772 0.2841 0.6788
vn 0.4076 0.8861 0.2206
vn -0.5035 0.8520 0.1431
vn 0.4722 -0.8807 -0.0368
vn 0.5300 -0.8304 -0.1719
vn 0.6227 0.3305 0.7093
vn -0.1079 -0.9598 0.2590
vn 0.1523 -0.9752 0.1604
vn -0.0419 -0.9885 0.1452
vn -0.1811 -0.9781 0.1028
vn 0.3742 0.9199 -0.1177
vn 0.5036 0.8631 -0.0383
vn 0.7864 0.6137 0.0699
vn -0.0041 0.9776 0.2103
vn -0.7326 -0.5456 0.4070
vn 0.2369 -0.9574 0.1652
vn -0.4865 -0.8657 0.1183
vn 0.1510 -0.9424 0.2984
vn 0.1215 -0.9343 0.3350
vn 0.9201 0.3906 -0.0295
vn -0.2457 0.8667 -0.4341
vn -0.9585 0.2559 -0.1256
vn -0.2444 0.9421 0.2296
vn 0.9986 0.0239 0.0478
vn -0.3826 -0.3922 0.8366
vn 0.2453 -0.9657 0.0848
vn -0.1623 0.9865 -0.0213
vn -0.1138 0.9588 -0.2603
vn -0.5300 0.6638 -0.5277
vn -0.4515 0.8338 -0.3176
vn -0.2727 0.9619 0.0198
vn -0.1746 -0.9347 -0.3096
vn 0.0445 -0.2742 -0.9607
vn -0.0737 0.9791 0.1897
vn -0.0675 0.9305 -0.3599
vn 0.0112 0.9324 -0.3613
vn -0.1008 0.7178 -0.6890
vn -0.1505 -0.9815 0.1185
vn -0.6772 0.2841 0.6788
vn 0.1028 0.9882 0.1137
vn 0.0331 0.9074 0.4189
vn -0.7345 0.4147 0.5371
vn -0.1523 -0.9752 0.1604
vn 0.2457 0.8667 -0.4341
vn 0.8535 0.5158 0.0738
vn 0.0487 0.9957 0.0783
vn -0.9986 0.0239 0.0478
vn 0.2587 -0.2251 0.9394
vn -0.1222 -0.9756 0.1827
vn 0.1623 0.9865 -0.0213
vn 0.4515 0.8338 -0.3176
vn 0.6215 0.7827 0.0333
vn 0.1138 0.9588 -0.2603
vn 0.2727 0.9619 0.0198
vn 0.1746 -0.9347 -0.3096
vn -0.1992 -0.7930 -0.5758
vn 0.0061 0.8865 0.4626
vn 0.0675 0.9305 -0.3599
vn -0.0112 0.9324 -0.3613
vn 0.1008 0.7178 -0.6890
vn 0.1505 -0.9815 0.1185
vn 0.7387 0.4210 0.5264
vn -0.1028 0.9882 0.1137
vn -0.0331 0.9074 0.4189
vn 0.7345 0.4147 0.5371
vn 0.2553 -0.9258 0.2787
vn 0.1011 0.9922 0.0734
usemtl Material
s off
f 23/1/1 2/2/1 22/3/1
f 3/4/2 6/5/2 5/6/2
f 10/7/3 33/8/3 32/9/3
f 9/10/4 7/11/4 47/12/4
f 7/13/5 4/14/5 3/15/5
f 5/16/6 7/17/6 3/18/6
f 6/5/7 8/19/7 9/20/7
f 16/21/8 21/22/8 25/23/8
f 15/24/9 1/25/9 17/26/9
f 39/27/10 11/28/10 1/25/10
f 1/29/11 52/30/11 16/21/11
f 11/31/12 52/30/12 1/29/12
f 52/30/13 11/31/13 53/32/13
f 11/28/14 54/33/14 12/34/14
f 56/35/15 55/36/15 12/34/15
f 54/33/16 56/35/16 12/34/16
f 14/37/17 20/38/17 16/21/17
f 30/39/18 21/40/18 6/41/18
f 10/7/19 13/42/19 21/43/19
f 17/44/20 20/38/20 18/45/20
f 29/46/21 26/47/21 24/48/21
f 19/49/22 29/50/22 28/51/22
f 20/52/23 15/24/23 18/53/23
f 17/44/24 16/21/24 20/38/24
f 13/42/25 28/54/25 21/43/25
f 24/55/26 27/56/26 13/42/26
f 20/52/27 23/1/27 15/24/27
f 18/45/28 15/57/28 17/44/28
f 25/23/29 14/37/29 16/21/29
f 21/22/30 14/37/30 25/23/30
f 26/58/31 19/59/31 27/56/31
f 27/56/32 19/59/32 28/54/32
f 29/50/33 19/49/33 26/60/33
f 14/37/34 28/51/34 29/50/34
f 22/3/35 39/27/35 15/24/35
f 1/25/36 15/24/36 39/27/36
f 23/1/37 22/3/37 15/24/37
f 17/44/38 1/29/38 16/21/38
f 21/43/39 31/61/39 10/7/39
f 30/62/40 2/2/40 32/9/40
f 32/63/41 34/64/41 31/65/41
f 31/66/42 34/67/42 33/68/42
f 33/68/43 34/67/43 32/69/43
f 36/70/44 6/71/44 21/72/44
f 9/73/45 30/39/45 6/41/45
f 21/22/46 37/74/46 36/75/46
f 5/76/47 35/77/47 47/78/47
f 16/21/48 52/30/48 35/79/48
f 2/2/49 50/80/49 22/3/49
f 22/3/50 50/80/50 39/27/50
f 30/62/51 85/81/51 50/80/51
f 30/62/52 50/80/52 2/2/52
f 30/39/53 84/82/53 80/83/53
f 37/74/54 5/84/54 36/75/54
f 35/79/55 37/74/55 16/21/55
f 52/30/56 47/85/56 35/79/56
f 30/39/57 9/73/57 84/82/57
f 47/86/58 84/82/58 9/73/58
f 85/81/59 30/62/59 80/87/59
f 40/88/60 68/89/60 67/90/60
f 41/91/61 44/92/61 42/93/61
f 49/94/62 78/95/62 76/96/62
f 45/97/63 48/98/63 47/99/63
f 45/100/64 42/101/64 46/102/64
f 43/103/65 45/104/65 47/105/65
f 46/106/66 44/107/66 48/98/66
f 61/108/67 70/109/67 66/110/67
f 60/111/68 62/112/68 38/113/68
f 39/114/69 38/113/69 51/115/69
f 38/116/70 61/108/70 52/117/70
f 51/118/71 38/116/71 52/117/71
f 52/117/72 53/119/72 51/118/72
f 51/120/73 55/121/73 57/122/73
f 56/123/74 57/124/74 55/125/74
f 54/126/75 57/122/75 56/127/75
f 55/128/76 56/129/76 54/130/76
f 59/131/77 61/108/77 65/132/77
f 75/133/78 44/134/78 66/135/78
f 58/136/79 49/94/79 66/137/79
f 62/138/80 63/139/80 65/132/80
f 69/140/81 74/141/81 59/142/81
f 64/143/82 73/144/82 74/145/82
f 65/146/83 63/147/83 60/148/83
f 62/138/84 65/132/84 61/108/84
f 58/149/85 73/150/85 72/151/85
f 58/149/86 72/151/86 69/152/86
f 68/153/87 65/146/87 60/148/87
f 63/154/88 62/155/88 60/156/88
f 70/109/89 61/108/89 59/131/89
f 66/110/90 70/109/90 59/131/90
f 71/157/91 72/151/91 64/158/91
f 72/159/92 73/160/92 64/161/92
f 74/141/93 71/162/93 64/163/93
f 73/144/94 59/131/94 74/145/94
f 67/90/95 60/111/95 39/114/95
f 38/113/96 39/114/96 60/111/96
f 68/89/97 60/111/97 67/90/97
f 62/138/98 61/108/98 38/116/98
f 66/137/99 76/96/99 75/164/99
f 77/165/100 40/166/100 75/167/100
f 77/168/101 76/169/101 79/170/101
f 76/171/102 78/172/102 79/173/102
f 78/172/103 77/174/103 79/173/103
f 44/92/104 82/175/104 66/176/104
f 48/177/105 44/134/105 75/133/105
f 66/110/106 83/178/106 61/108/106
f 43/179/107 81/180/107 83/178/107
f 61/108/108 81/180/108 52/117/108
f 40/88/109 67/90/109 50/181/109
f 67/90/110 39/114/110 50/181/110
f 75/182/111 50/183/111 85/184/111
f 75/185/112 40/186/112 50/187/112
f 75/188/113 80/189/113 84/190/113
f 83/178/114 82/191/114 43/179/114
f 81/180/107 61/108/107 83/178/107
f 52/117/115 81/180/115 47/192/115
f 75/133/116 84/193/116 48/177/116
f 47/194/117 48/177/117 84/193/117
f 85/184/118 80/195/118 75/182/118
f 23/1/119 13/42/119 2/2/119
f 3/4/120 4/196/120 6/5/120
f 10/7/121 31/61/121 33/8/121
f 9/10/122 8/197/122 7/11/122
f 7/13/123 8/198/123 4/14/123
f 5/16/124 47/199/124 7/17/124
f 6/5/125 4/196/125 8/19/125
f 11/28/126 39/27/126 54/33/126
f 12/34/127 55/36/127 11/28/127
f 55/36/128 53/200/128 11/28/128
f 10/7/129 2/2/129 13/42/129
f 24/201/130 20/38/130 14/37/130
f 14/202/131 29/46/131 24/48/131
f 13/42/132 27/56/132 28/54/132
f 13/42/133 23/1/133 24/55/133
f 24/55/134 26/58/134 27/56/134
f 20/52/135 24/55/135 23/1/135
f 14/37/136 21/22/136 28/51/136
f 21/203/137 30/204/137 31/205/137
f 32/9/138 31/61/138 30/62/138
f 2/2/139 10/7/139 32/9/139
f 36/206/140 5/6/140 6/5/140
f 21/22/141 16/21/141 37/74/141
f 5/84/55 37/74/55 35/79/55
f 40/88/142 58/136/142 68/89/142
f 41/91/143 43/207/143 44/92/143
f 49/208/144 77/209/144 78/210/144
f 45/97/145 46/106/145 48/98/145
f 45/100/146 41/211/146 42/101/146
f 43/103/147 41/212/147 45/104/147
f 46/106/148 42/213/148 44/107/148
f 51/120/149 53/214/149 55/121/149
f 57/122/150 54/126/150 51/120/150
f 54/215/151 39/216/151 51/217/151
f 58/136/152 40/88/152 49/94/152
f 59/131/153 65/132/153 69/218/153
f 69/140/154 71/162/154 74/141/154
f 58/149/155 66/219/155 73/150/155
f 69/152/156 68/153/156 58/149/156
f 72/151/157 71/157/157 69/152/157
f 68/153/158 69/152/158 65/146/158
f 73/144/159 66/110/159 59/131/159
f 66/137/160 49/94/160 76/96/160
f 75/220/161 76/169/161 77/168/161
f 77/209/162 49/208/162 40/221/162
f 44/92/163 43/207/163 82/175/163
f 66/110/164 82/191/164 83/178/164
f 43/222/165 47/223/165 81/224/165
